<svg xmlns="http://www.w3.org/2000/svg" viewBox="0 0 1149.27 451.92"><defs><style>.cls-1,.cls-3{fill:#b49c9c;}.cls-1,.cls-2{opacity:0.2;}</style></defs><title>Asset 18</title><g id="Layer_2" data-name="Layer 2"><g id="Layer_1-2" data-name="Layer 1"><path class="cls-1" d="M54.22,424.57c-3.17-2.09-6.93-1.7-10.41-2.39-44.33-8.85-49-45.79-40-74.73,3.1-10,9-18.54,15.18-26.82,6.66-9,8.82-18.08,4.49-28.91-3.12-7.82-5.17-16.1-4.46-24.82,1.08-13.12,8-21.85,19.66-27.24a57.12,57.12,0,0,1,18.73-4.92c3.14-.3,3.71-1.52,3.75-4.35.34-25.64.81-51.28,1.26-76.91.26-14.48.4-29,.92-43.44.19-5.12-4.25-9-3.25-14.23.24-1.29-1.18-.32-1.8-.23-2,.28-3.84,0-4.27-2.29s1.14-3.43,3.19-3.52c2.4-.1,3.21-1,2.79-3.41-.35-2-.71-2.88-3.11-2.17a2.81,2.81,0,0,1-3.53-2.65c-.21-2,1.07-3.09,3-3.11,3.34,0,2.8-2.28,2.93-4.5.22-3.59-2.06-1.78-3.51-1.9s-2.62-.66-2.87-2.27.44-3.27,2.19-3.28c4.25,0,3.63-2.87,3.54-5.5-.06-2-.2-4-.27-6-.27-7.83.79-9.21,8.44-11.55A19.58,19.58,0,0,1,77.15,43c8.74,2,10.19,4,9.92,12.91-.08,2.5-.13,5-.31,7.49-.11,1.6.41,2.62,2.06,2.76,2.21.2,4.24.79,3.67,3.51-.73,3.4-3.48,2.12-6.1,1.87.09,3.06-2.09,6.78,3.63,7,1.52.06,2.29,1.39,2.11,2.89a2.84,2.84,0,0,1-3.49,2.71c-2.29-.64-2.86,0-3.17,2.1-.35,2.3.26,3.39,2.75,3.47,2,.06,3.63,1.18,3.24,3.49s-2.3,2.91-4.2,2.23c-2.16-.77-1.77.54-2.19,1.78-4.82,14.2-2.34,28.79-2.2,43.21.28,29.63,1,59.26,1.43,88.89,0,3.64.68,5.26,4.75,5.52a51.33,51.33,0,0,1,15,3.61c17.55,6.77,25.62,21.34,21.68,39.75a131.75,131.75,0,0,1-4.77,17.3c-2.76,7.61-1.42,14.36,2.87,20.84,3.58,5.41,7.22,10.79,10.73,16.24,8.92,13.85,12.17,29.12,10.41,45.34-2.52,23.32-16.46,37.88-40.87,43.64-4.6,1.09-9.46.94-13.86,3ZM83.35,73.17c-.88-1.07,1-3.72-1.81-3.66-3.47.08-1.84,3.41-2.46,5.19-.4,1.15-.58,3.8,2.06,3.47C84.2,77.8,82.4,75,83.35,73.17ZM66.2,74.81c-.21-2.24.91-5.07-2.28-5.37-2.37-.22-1.78,2.15-1.53,3.35.37,1.86-1.23,4.88,2,5.32C67.15,78.49,66.05,76,66.2,74.81Zm-2-8.66c1.78,0,2.09-1.08,2-2.57S66,60.45,64,60.67c-1.66.18-1.75,1.63-1.78,3S62.36,66.3,64.25,66.15ZM81,60.6c-2,.51-1.73,2.12-1.79,3.6-.07,1.64,1,1.9,2.27,1.91,2.1,0,1.73-1.57,1.76-2.84C83.26,61.75,82.7,60.68,81,60.6ZM66.45,85.87c-.71-1.33,1.16-4.07-1.66-4.27S63,84,63.2,85.32s-1.29,4.19,1.85,4.12C67.49,89.38,66.29,87.3,66.45,85.87Zm12.48.27c.76.91-.85,3.29,1.54,3.24,3.35-.08,1.33-3,1.78-4.56.32-1.07.89-3.47-1.49-3.23C78.06,81.86,79.5,84.41,78.93,86.14Z"/><path class="cls-1" d="M1074.37,0c2.82,1.88,5.5,4.06,8.5,5.58a16.76,16.76,0,0,1,9,11.52,1.91,1.91,0,0,0,2.2-1.19c1.24-2.72,3.38-2.15,4.91-.83,2.18,1.88,2,4.57.5,6.82a3,3,0,0,1-4.77.46c-2.71-3.23-2.75-1.39-4.51,1-2.71,3.69-2.29,8.13-4.11,12-1,2,1.87,6,3.39,8.9.43.8,1.76-.15,2.26-1.13,1.33-2.57,3.53-2,5-.69a4.85,4.85,0,0,1,.53,6.82c-1.29,1.6-3.44,2.18-5.07.07-2.18-2.82-2.81-1.33-3.06,1a9,9,0,0,1-3.57,6.24c-3.5,2.92-4.19,7-4,11.31q2.93,88.62,5.78,177.23.93,28.45,1.84,56.91c0,.65.15,1.29.31,2.53,2.94-2.63,5.84-5.17,6.66,1.12.08.61,2.36.9,3.58,1.41,3.07,1.28,6.16,3.77,9.16,3.66,5.4-.18,7.8,2.13,10.3,6.46a18.42,18.42,0,0,0,8.51,7.46c4.67,1.86,6.74,4.29,7.44,9.3a17,17,0,0,0,5,9c3.43,3.32,4.89,6.33,4.09,11.31-.58,3.54,1.25,7.46,1.91,11.22.32,1.76,0,3.65,2.24,4.57,1.29.54,1.23,1.71.51,2.94a33,33,0,0,0-4.11,21.76c.14,1.08.08,2.19-.74,2.75-6,4.06-7.31,10.76-9.78,16.83-.3.74-.53,1.95-1,2.1-5.95,1.77-9.35,6.89-13.21,10.93-5,5.25-11.65,6.39-17.55,9.35-2.45,1.23-5.57,1.11-7.28,3.87a2.35,2.35,0,0,1-2.17.67c-4.15-3-5.56,0-6.59,3.07s-5,3.35-5.61,6.77c-.16.89-2.15,1-2.46,0-1.17-3.83-5.85-5-6.67-8.92-.24-1.19-1-2.21-1.89-1.7-5.29,3.14-8.44-2.57-12.87-3-2.37-.21-4.6-2.59-6.67,1-.92,1.57-2.78-.19-3.94-.87a82.33,82.33,0,0,1-26.36-24.05c-.89-1.28-1.22-3.15-3.47-3.11-.59,0-1.75-1.05-1.69-1.5.83-6.34-3.81-10.91-5.29-16.5a117.43,117.43,0,0,1-3.93-23.07c-.14-2.22-.09-4.08,2.95-3.76.83.09,1.94,0,1.91-1.07-.13-4.75,4.37-9.25.69-14.19a1.84,1.84,0,0,1,1-2.89c6.79-2.81,6.15-10.85,10.8-15.13-2.3-5.12,2.72-4.18,4.41-6.15,4-4.61,11.92-6,12.09-13.86,0-1.1,1.48-2,2.15-1.44,3.72,3.27,6.54-.05,9.19-1.44,3.73-2,9.61-1.09,10.56-7.19a.52.52,0,0,1,.41-.24c7,1.27,4.15-4,4.14-6.7q-.12-71.7-.5-143.41c0-2,.17-4,0-6-.14-1.53,1.61-3.87-.5-4.41s-4.56-1.87-6.85.57c-1.54,1.63-4,3-6,.44-1.82-2.26-2.93-4.69-.53-7.48,2.21-2.57,4.31-2,6.33-.06,1.84,1.77,3.42,1.71,4.08-.71,1.3-4.75,3.1-4.71,5.94.39,0-10.32,0-19.27,0-28.22-.05-13-.18-26-.18-39,0-4.58-1.09-8.56-5.09-11.31a6,6,0,0,1-1.72-1.77c-1.45-2.34-.46-9.5-6.31-2.93-.74.83-3.21-.15-4-2-.93-2.15-1.1-4.34.76-6,1.45-1.27,3.55-1.83,4.83.05,2.91,4.26,3.21.72,4.26-1.2,4.14-7.61-.7-13.54-3.83-19.67-1-1.88-2.72-1.18-3.84.62-1.44,2.31-3.53,2-5,.34-1.8-2-2.06-4.74-.09-6.8,1.45-1.52,3.52-1.92,5,.42.45.74.86,1.54,1.83,1.37,1.39-.24,1.08-1.44,1.1-2.38.12-4.74,3.71-7.32,6.77-9.9s6.82-4.35,10.28-6.47Z"/><g class="cls-2"><path class="cls-3" d="M583,125.08l-.21,137.1c0,14.95,0,29.9-.08,44.85,0,3.26,1.13,5.57,4,6.7a7.76,7.76,0,0,0,8.42-1.22c3.75-3.28,4.9-7.78,5.89-12.35,1.46-6.72,5.09-8,10.59-3.79a17.69,17.69,0,0,1,7.12,13.22c.92,12.6.21,25.25-5.42,36.62-6,12.09-3.4,22.31,3.68,32.52,5.15,7.45,9.59,15.29,9.84,24.66.44,16.81-9.16,27.7-26,28.45-19.58.87-38.88-1.37-57.33-8.43-21.55-8.25-33.14-34.54-25-56.1,3-8,7.23-15.37,11.62-22.6,5.15-8.48,6.12-17.07,2.27-26.15-4.79-11.3-5.24-23.25-5.36-35.23a21.93,21.93,0,0,1,5.2-14.75c2.47-2.92,5.53-5.07,9.55-4.22s6,4.22,6.78,7.89c1,4.53,1.41,9.19,2.17,13.78a35.27,35.27,0,0,0,1.21,4.81c1.09,3.46,3.79,3.8,6.83,3.34S562,291.45,562,289q1.51-54.3,3.19-108.59c.59-18.44,1.49-36.86,2.25-55.28Z"/><path class="cls-3" d="M583,125.08l-15.5,0c-.43-1.71-2-2.25-3.28-2.81-4.47-1.9-7-4.81-6.24-10,.45-2.93-.85-3.25-3.47-2.38-2.09.69-5,1.5-6.14-1.35a9.49,9.49,0,0,1,.43-8.21c1-1.8,2.4-1.33,3.83-.49,2.31,1.37,3.67,3.69,5.82,6.18.91-4.5,1.7-8.41,2.51-12.4-3.27,0-7.11,3.1-8.72-1.65-.93-2.72-1.41-6.9,1.48-8.25,3.73-1.74,5.32,2.77,8,5,2-3.43,2.34-7.3,3.43-11.13-3.21-.9-7.73,3.27-9.24-2.37-.77-2.9-1.15-6.94,2-7.94,4-1.28,5.38,3.44,8.09,5.93,1.87-2.4,2.28-5.33,3-8,.8-3-1.59-2-3.06-2.09-2.53-.1-5.72.93-5.95-3.26-.16-2.87-.3-6.27,2.61-7.53,3.27-1.42,4.19,2.33,5.87,4.15a20.5,20.5,0,0,1,1.87,3.14c.5-1.59.78-2.57,1.11-3.53,2.29-6.6,6.85-9.17,13.59-7.67,6.45,1.43,9.53,5.57,8.77,12.36-.52,4.67-1.67,9.13-6.29,11.8-3.29,1.9-1.69,5.17-1.24,7.64,1.43,8,3.19,15.93,5.13,23.82.7,2.81.16,4.4-2,6.38C585.07,114.18,580.53,118.23,583,125.08Z"/></g><path class="cls-1" d="M357.53,381.12c-1.8-6.83-5-13.48-2.62-20.91.66-2.07-.56-3.6-3-3.4-4.07.33-5.75-2.35-6.54-5.56-2.19-8.95-3.22-18-1.51-27.19.51-2.74,1.61-5,4.77-5.71,2.44-.57,3.08-2.34,1.89-4.6s-.8-4.91-.4-7.34c.64-3.93,1.9-7.79,2.28-11.74,1.45-14.9-4.1-30.69-22.81-33.62-3.42-.54-3.89-1.74-3.85-4.63.23-20.31-1.45-40.59-1.07-60.92.1-5.29,1.6-6.41,6.13-5.38,2.07,1.16,4.3-.94,6.47.41.69.43,1.3-.8,1.37-1.64.07-1-.3-2.54-1.3-2.24-2.22.64-4.39-1.06-6.49.16-6.68.39-7.11,0-6.46-6.7.16-1.61.85-3,0-4.81-.63-1.25-1.32-3.69.95-4.11,1.8-.34,4.33-1.46,5.65,1.36,1.52,3.25,4.17,2.83,6.07,1a5.34,5.34,0,0,0,.14-7.71c-1.93-2.07-4.51-2.29-6.13.72-1.46,2.71-3.79,1.21-5.75,1.4a1.14,1.14,0,0,1-1.17-1.68c.93-1.77-1-5.16,2.93-5.28,1.67-.05,2.18-1.44,2.42-2.76s-.33-2.18-1.76-3c-2.61-1.57-5.29-3.49-5.8-6.9-.28-1.89-1.16-2.36-3-2.44-2.12-.09-3,.69-3.34,2.66-.56,3.06-2.64,5-5.11,6.72-2.62,1.77-2.31,4.43,0,5.25,2.82,1,2.48,2.59,2.36,4.5-.1,1.65-1,3.48-.48,4.88,2,5.81-.78,6.64-5.51,5.84-3.4-1.31-4.82,1.87-7.14,3.33,2.39-1.55,4.78,1.29,7.11-.29,6.27-.22,6.29-.22,6,5.84-.07,1.47-.88,3.09-.46,4.35,1.87,5.64-.86,6.62-5.55,5.94-.82-2.32-1.81-4.47-4.9-3.67-2.83.72-3.32,2.94-3.27,5.44s.82,4.28,3.38,4.86c3.1.69,4.08-1.42,4.78-3.81,5.5-1.27,6.23,1.73,6,6.25q-1.08,26.66-1.77,53.32c-.07,2.79-1.06,3.49-3.61,3.94-9.53,1.67-17.11,6.36-21.36,15.36-3.47,7.34-3.56,15.09-2,22.93,1,5.13,3.23,10.16.62,15.53-.71,1.47.39,2.91,2.17,3.24,3.61.68,4.56,3.33,5.12,6.48,1.57,8.86.4,17.57-1.53,26.19-.81,3.59-2.8,6.36-7.34,5.87-2.34-.25-3.22,1-2.53,3.44,2.7,9.6-1.48,18-4.79,26.56v14c1,.22,1.1,1.15,1.35,1.89,3.05,9.18,9.57,15.09,18.23,18.61,14.65,5.94,29.51,6.52,44.42.71,10.74-4.19,17.59-11.67,19.67-23.19C360.63,392.71,359.07,386.93,357.53,381.12Z"/><g class="cls-2"><path class="cls-3" d="M822.64,335.62a168.73,168.73,0,0,1-32.75-5.09c0,21.16-.62,41.49.2,61.76.6,14.92,3.27,16.71,18.45,18.55,1.81.22,3.63.32,5.44.56,12.18,1.63,15.71-1.07,15.89-13.37.27-18.21-.07-36.42.15-54.62C830.09,338,828,335.93,822.64,335.62Z"/><path class="cls-3" d="M844.28,335.66c-5.62.28-7.15,2.94-7.1,8.1.18,17.9-.08,35.8.12,53.69.14,12.2,3.94,15.41,15.61,13.88,6-.78,12-1.67,18-2.72,1.62-.28,4.81-1.29,4.08-2.44-3.53-5.52,2.38-8.91,2.41-13.39.14-20.54.06-41.08.06-62.13A190.17,190.17,0,0,1,844.28,335.66Z"/><path class="cls-3" d="M774.51,325a71,71,0,0,1-24.82-17c0,20.12.86,38.28-.25,56.32-1.07,17.58,7.87,27.43,21.71,35.48,5.87,3.41,8,1.33,10.43-3.49,1.23-2.4.95-4.69,1-7,.07-17.29-.19-34.58.15-51.86C782.82,331,780.12,327.4,774.51,325Z"/><path class="cls-3" d="M891.09,325.85c-3.31,1.46-6.28,3.93-6.3,8.07-.08,19.68-.21,39.36.13,59,.07,3.67,2,8.89,6.26,8.61,10.38-.68,25.83-16.68,26.1-27.34.55-21.38.17-42.77.17-66.09C909.27,317,900.42,321.74,891.09,325.85Z"/><path class="cls-3" d="M915.45,260.45c3.7-2.29,7.79-4.87,4.09-9.95-3.08-4.23-6.8-2.51-10.3-.1-4.46,3.08-9,6.06-13.48,9.08-.78,5.58,4.54,5.11,7.21,7.27-13,10.21-28,17.24-42,26-3.69,2.31-6.45,4.41-7,9.52-.65,6.5-5.88,9.12-12,8-5.7-1.05-9-5.21-8.28-11.18s4.67-10,10.47-8.84c7.31,1.49,12-1.94,17.18-5.69,9-6.59,18.22-13,27.27-19.53,1.69-1.23,4.9-2,2.72-5.3-6.12.28-8.21-7.81-13.95-7.29-11.68,1.06-22.6-3.92-34.09-3.55-4.44.14-7.11-6.12-11.6-3.57-11.77,6.72-25.63,3.3-37.71,8.29-3.7,1.53-8.23-4-11.1-.23-6.62,8.75-17.6,11.39-24.87,19.15-11.2,11.95-11.09,23.72,1.11,34.72a81.12,81.12,0,0,0,9.57,6.91c9.51,6.31,21.27,5.56,31.65,10.47,9.28,4.39,21.32,7.24,32.23.75.82-.49,2.4,0,3.51.34,14.5,4.76,28,3,40.45-6,1.38-1,3.44-1.91,5-1.66,15.27,2.46,23.92-7.59,32.12-17.5,5.89-7.13,4.7-15.15-.3-22.82-2.62-4-7.36-6.24-9-11l-.73.14.73-.14C908.12,264.62,911.87,262.66,915.45,260.45Z"/></g></g></g></svg>