<svg xmlns="http://www.w3.org/2000/svg" viewBox="0 0 759.72 301"><defs><style>.cls-1{fill:#fff;}</style></defs><title>Asset 3</title><g id="Layer_2" data-name="Layer 2"><g id="Note_Layer" data-name="Note Layer"><path class="cls-1" d="M482.14,188.18c31.36-8,95.76,30.28,102.67,74.38,3.17-2.42-41.56-45.53-47.55-38.32L532.46,238c-13.07-11.2-24.34-21.65-38.49-24.41-15.11,10.76-36.21,24.88-59.51,32.41,3.24-7.46-1.33-15.76-6-13,0,0-50.5,19.15-78,24C385.26,246.61,456.56,205.66,482.14,188.18Z"/><g id="Stem"><path class="cls-1" d="M141.46,292c217.64-31.12,334-126,334-126,84.34-10,131.72,81.41,166,135,.57-39.37-15.16-150.73-131-167,16.82-3.91,86-78,86-78,92.19-7.11,164.59,154.08,163,150,3.84-71.87-35.37-184.41-164-206-140.16,216.6-420.21,217-414,224C181.46,224,135,283.1,141.46,292Z"/></g><g id="Note"><ellipse class="cls-1" cx="105.89" cy="194.39" rx="91.6" ry="111.75" transform="translate(-114.49 173.57) rotate(-56.03)"/></g><path class="cls-1" d="M600.58,75.63c30.19-6.14,86.07,29.53,115.48,85.73-8.79-10.08-64-58.92-69.17-53.3l5.87,23.29c-20.34-22.09-32.33-32.3-43.26-32.3-22.71,6.61-59.66,27.32-59.66,27.32C553.16,123.65,576.25,100.9,600.58,75.63Z"/></g></g></svg>